#!OML:ASF X:\für Bonn\!DataBase\2005_08_10_Bjorn_Final\c3d\bjorn.ASF
:FULLY-SPECIFIED
:DEGREES
143
root -0.777991 9.04514 16.2654 -379.823 -193.928 -735.018
lowerback 51.5815 -18.8536 9.6188
upperback 22.6924 -4.78153 5.38201
thorax 5.01433 2.75527 3.77143
lowerneck -7.19165 1.81469 -7.71065
upperneck 17.7911 6.7883 -11.186
head 6.88849 2.29691 -1.73343
rclavicle -5.725e-014 -2.54444e-014
rhumerus -185.478 -130.893 126.08
rradius 17.8613
rwrist 3.08675
rhand -10.2837 5.01705
rfingers 7.12502
rthumb 15.7105 -24.3652
lclavicle -5.725e-014 -2.54444e-014
lhumerus 1.58638 -41.7119 32.4157
lradius 63.6207
lwrist -1.81712
lhand -28.231 -367.853
lfingers 7.12502
lthumb -1.60901 22.1209
rfemur -82.1615 -40.0547 -9.96044
rtibia 131.378
rfoot -32.4276 38.3415
rtoes -22.1755
lfemur 118.993 138.347 167.285
ltibia 142.054
lfoot -34.0263 -8.09444
ltoes -43.871
144
root -0.743533 8.91647 16.2657 -380.585 -193.897 -735.068
lowerback 51.4685 -18.9177 9.43955
upperback 22.7526 -4.98078 5.24013
thorax 5.08516 2.67974 3.75596
lowerneck -7.15362 1.95353 -7.34505
upperneck 17.9855 7.03099 -11.4876
head 6.97135 2.40695 -1.86987
rclavicle -8.26944e-014 -1.04958e-013
rhumerus -186.586 -132.376 126.168
rradius 18.5906
rwrist 1.66374
rhand -10.7472 4.88424
rfingers 7.12502
rthumb 15.2641 -24.5326
lclavicle -8.26944e-014 -1.04958e-013
lhumerus 0.322139 -42.1319 34.1924
lradius 63.0903
lwrist -1.8208
lhand -28.3563 -367.429
lfingers 7.12502
lthumb -1.73007 22.5437
rfemur -82.3736 -41.799 -10.0648
rtibia 132.321
rfoot -33.2591 38.9862
rtoes -22.5643
lfemur 120.517 135.25 169.907
ltibia 142.872
lfoot -34.757 -9.45918
ltoes -43.9481
145
root -0.708064 8.79091 16.2675 -381.343 -193.841 -735.16
lowerback 51.3803 -18.9514 9.20867
upperback 22.7919 -5.1742 5.09691
thorax 5.12888 2.59693 3.7562
lowerneck -7.13279 2.08661 -6.93432
upperneck 18.2129 7.27191 -11.7997
head 7.07125 2.51565 -2.01722
rclavicle 4.45278e-014 -2.62396e-014
rhumerus -187.765 -134.036 126.23
rradius 19.4136
rwrist 0.0385081
rhand -11.1796 4.80553
rfingers 7.12502
rthumb 14.8475 -24.6425
lclavicle 4.45278e-014 -2.62396e-014
lhumerus -0.977643 -42.4635 36.1086
lradius 62.4312
lwrist -1.95414
lhand -28.4658 -366.995
lfingers 7.12502
lthumb -1.8358 22.9771
rfemur -82.5809 -43.6496 -10.2332
rtibia 133.236
rfoot -34.0578 39.719
rtoes -22.8092
lfemur 122.353 132.148 172.846
ltibia 143.644
lfoot -35.5681 -10.7866
ltoes -44.0397
146
root -0.671831 8.66688 16.2702 -382.094 -193.762 -735.236
lowerback 51.3022 -18.9951 8.97583
upperback 22.8287 -5.37732 4.93912
thorax 5.16855 2.51123 3.7453
lowerneck -7.10146 2.23257 -6.40087
upperneck 18.4231 7.52274 -12.1798
head 7.17142 2.63273 -2.20646
rclavicle 3.81667e-014 3.33958e-014
rhumerus -188.962 -135.68 126.203
rradius 20.3332
rwrist -1.65704
rhand -11.599 4.79979
rfingers 7.12502
rthumb 14.4434 -24.6776
lclavicle 3.81667e-014 3.33958e-014
lhumerus -2.31988 -42.6819 38.134
lradius 61.64
lwrist -2.32745
lhand -28.6095 -366.544
lfingers 7.12502
lthumb -1.97457 23.4268
rfemur -82.7627 -45.5898 -10.4333
rtibia 134.127
rfoot -34.7887 40.5504
rtoes -22.8658
lfemur 124.647 128.996 176.309
ltibia 144.384
lfoot -36.571 -12.0336
ltoes -44.1821
147
root -0.634506 8.5465 16.274 -382.828 -193.682 -735.274
lowerback 51.2304 -19.0321 8.7655
upperback 22.8731 -5.55121 4.78929
thorax 5.21673 2.44366 3.72558
lowerneck -7.10657 2.37401 -5.80886
upperneck 18.6301 7.7581 -12.5519
head 7.2797 2.74431 -2.40419
rclavicle -1.46306e-013 1.11319e-014
rhumerus -190.212 -137.36 126.131
rradius 21.374
rwrist -3.44881
rhand -12.0416 4.81857
rfingers 7.12502
rthumb 14.017 -24.6888
lclavicle -1.46306e-013 1.11319e-014
lhumerus -3.63127 -42.8283 40.2265
lradius 60.8159
lwrist -2.77462
lhand -28.6331 -366.244
lfingers 7.12502
lthumb -1.99733 23.7261
rfemur -82.9147 -47.4866 -10.6407
rtibia 134.968
rfoot -35.1343 41.6218
rtoes -22.2023
lfemur 127.464 125.862 180.418
ltibia 145.085
lfoot -37.6281 -13.3527
ltoes -44.1862
148
root -0.596346 8.42579 16.2783 -383.576 -193.594 -735.307
lowerback 51.2012 -19.0662 8.52377
upperback 22.8958 -5.73469 4.63107
thorax 5.23641 2.36621 3.71281
lowerneck -7.10593 2.52894 -5.12906
upperneck 18.8661 8.02004 -12.9814
head 7.4054 2.86912 -2.63394
rclavicle 9.54166e-014 1.74931e-014
rhumerus -191.446 -139.036 125.979
rradius 22.4571
rwrist -5.21435
rhand -12.4638 4.81772
rfingers 7.12502
rthumb 13.61 -24.7174
lclavicle 9.54166e-014 1.74931e-014
lhumerus -5.08172 -42.814 42.456
lradius 59.9825
lwrist -3.45143
lhand -28.3576 -366.131
lfingers 7.12502
lthumb -1.73124 23.8414
rfemur -83.0179 -49.5322 -10.9053
rtibia 135.814
rfoot -35.7913 42.608
rtoes -21.8577
lfemur 131.134 122.706 185.466
ltibia 145.773
lfoot -38.8974 -14.572
ltoes -44.2855
149
root -0.556302 8.30657 16.2846 -384.288 -193.487 -735.318
lowerback 51.166 -19.0882 8.27062
upperback 22.9108 -5.91301 4.49116
thorax 5.24937 2.2852 3.72194
lowerneck -7.07598 2.6798 -4.43489
upperneck 19.0909 8.27904 -13.4335
head 7.52691 2.99505 -2.87556
rclavicle -9.22361e-014 -4.13472e-014
rhumerus -192.667 -140.669 125.771
rradius 23.5761
rwrist -6.87464
rhand -12.8783 4.88036
rfingers 7.12502
rthumb 13.2105 -24.6811
lclavicle -9.22361e-014 -4.13472e-014
lhumerus -6.58696 -42.6458 44.7654
lradius 59.1489
lwrist -4.30446
lhand -27.9579 -365.986
lfingers 7.12502
lthumb -1.3452 23.9896
rfemur -83.1396 -51.6313 -11.1489
rtibia 136.635
rfoot -36.297 43.6838
rtoes -21.3023
lfemur 135.466 119.81 191.263
ltibia 146.429
lfoot -40.2404 -15.6244
ltoes -44.3989
150
root -0.515783 8.19023 16.2912 -385.009 -193.361 -735.302
lowerback 51.1629 -19.1412 8.02595
upperback 22.9114 -6.11869 4.32887
thorax 5.243 2.19426 3.71366
lowerneck -7.04538 2.8435 -3.74669
upperneck 19.3233 8.54901 -13.8455
head 7.65273 3.12763 -3.10362
rclavicle -2.54444e-014 -1.36764e-013
rhumerus -193.853 -142.203 125.485
rradius 24.7102
rwrist -8.42475
rhand -13.2441 4.92949
rfingers 7.12502
rthumb 12.8578 -24.6545
lclavicle -2.54444e-014 -1.36764e-013
lhumerus -8.2208 -42.394 47.1685
lradius 58.3738
lwrist -5.02983
lhand -27.2465 -366.308
lfingers 7.12502
lthumb -0.6582 23.6706
rfemur -83.1715 -53.7832 -11.467
rtibia 137.435
rfoot -36.9352 44.7459
rtoes -20.7351
lfemur 140.751 117.239 198.079
ltibia 147.058
lfoot -41.6433 -16.6775
ltoes -44.4362
151
root -0.47443 8.07371 16.3001 -385.742 -193.21 -735.292
lowerback 51.1586 -19.202 7.7655
upperback 22.9428 -6.32755 4.14097
thorax 5.27023 2.11007 3.68786
lowerneck -7.0113 3.00971 -3.07754
upperneck 19.479 8.79847 -14.2244
head 7.75213 3.25489 -3.32024
rclavicle 1.33583e-013 1.25632e-013
rhumerus -194.946 -143.594 125.104
rradius 25.816
rwrist -9.75834
rhand -13.6327 4.98686
rfingers 7.12502
rthumb 12.4833 -24.6203
lclavicle 1.33583e-013 1.25632e-013
lhumerus -9.83111 -42.2172 49.5399
lradius 57.6857
lwrist -5.30086
lhand -26.6665 -366.328
lfingers 7.12502
lthumb -0.0980105 23.6516
rfemur -83.1443 -56.0493 -11.8782
rtibia 138.23
rfoot -37.6922 45.7788
rtoes -20.1883
lfemur 146.835 115.126 205.703
ltibia 147.671
lfoot -43.0648 -17.5298
ltoes -44.4464
152
root -0.432512 7.95925 16.3111 -386.48 -193.031 -735.248
lowerback 51.1911 -19.2963 7.51845
upperback 22.9692 -6.55799 3.9188
thorax 5.28621 2.02362 3.62877
lowerneck -6.95146 3.17137 -2.33507
upperneck 19.5927 9.02509 -14.6285
head 7.83757 3.37746 -3.56114
rclavicle -2.54444e-014 7.4743e-014
rhumerus -195.894 -144.784 124.593
rradius 26.8176
rwrist -10.8428
rhand -14.0366 4.99075
rfingers 7.12502
rthumb 12.0938 -24.6397
lclavicle -2.54444e-014 7.4743e-014
lhumerus -11.4919 -41.9951 51.9263
lradius 56.9905
lwrist -5.38289
lhand -26.2119 -366.234
lfingers 7.12502
lthumb 0.341056 23.7452
rfemur -82.97 -58.3555 -12.3979
rtibia 138.994
rfoot -38.5078 46.8023
rtoes -19.6402
lfemur 153.442 113.575 213.9
ltibia 148.261
lfoot -44.4282 -18.3086
ltoes -44.4057
153
root -0.3893 7.84586 16.3238 -387.226 -192.805 -735.224
lowerback 51.2132 -19.4003 7.25093
upperback 23.011 -6.80665 3.6702
thorax 5.31855 1.93279 3.55634
lowerneck -6.87462 3.33637 -1.70977
upperneck 19.6223 9.21359 -14.8894
head 7.88004 3.48705 -3.73866
rclavicle 1.49486e-013 2.19458e-013
rhumerus -196.758 -146.11 123.978
rradius 27.855
rwrist -11.8016
rhand -14.5709 4.78809
rfingers 7.12502
rthumb 11.5785 -24.8721
lclavicle 1.49486e-013 2.19458e-013
lhumerus -13.1043 -41.6563 54.2583
lradius 56.2753
lwrist -5.51145
lhand -25.7302 -366.089
lfingers 7.12502
lthumb 0.806363 23.8895
rfemur -82.6934 -60.7718 -13.0878
rtibia 139.753
rfoot -39.4818 47.7743
rtoes -19.3063
lfemur 160.133 112.589 222.109
ltibia 148.812
lfoot -45.745 -18.8964
ltoes -44.4282
154
root -0.346138 7.73531 16.3385 -387.973 -192.57 -735.17
lowerback 51.2469 -19.5238 7.00869
upperback 23.0615 -7.05638 3.40051
thorax 5.35682 1.85052 3.45291
lowerneck -6.75942 3.50777 -1.0705
upperneck 19.6107 9.40942 -15.1844
head 7.90673 3.60328 -3.93024
rclavicle -1.78111e-013 -4.13472e-014
rhumerus -197.518 -147.467 123.266
rradius 28.8709
rwrist -12.623
rhand -15.2144 4.39954
rfingers 7.12502
rthumb 10.958 -25.2945
lclavicle -1.78111e-013 -4.13472e-014
lhumerus -14.6554 -41.2853 56.5388
lradius 55.5035
lwrist -5.61326
lhand -25.2906 -365.934
lfingers 7.12502
lthumb 1.23091 24.0422
rfemur -82.2283 -63.1499 -13.9268
rtibia 140.473
rfoot -40.5073 48.6792
rtoes -18.8214
lfemur 166.573 112.108 230.058
ltibia 149.335
lfoot -46.9732 -19.3282
ltoes -44.4115
155
root -0.302269 7.62685 16.3559 -388.716 -192.294 -735.107
lowerback 51.305 -19.6675 6.78275
upperback 23.0953 -7.32031 3.10327
thorax 5.36973 1.76636 3.31809
lowerneck -6.64466 3.69785 -0.549288
upperneck 19.6592 9.62945 -15.3376
head 7.94589 3.72926 -4.05296
rclavicle 1.39944e-013 1.89243e-013
rhumerus -198.249 -148.665 122.487
rradius 29.8588
rwrist -13.1794
rhand -15.8628 3.96253
rfingers 7.12502
rthumb 10.3325 -25.7636
lclavicle 1.39944e-013 1.89243e-013
lhumerus -16.1871 -40.8325 58.775
lradius 54.6583
lwrist -5.6299
lhand -24.9137 -365.934
lfingers 7.12502
lthumb 1.59489 24.0399
rfemur -81.5388 -65.5387 -15.0008
rtibia 141.17
rfoot -41.5832 49.5458
rtoes -18.3627
lfemur 172.123 112.044 237.032
ltibia 149.817
lfoot -48.0763 -19.598
ltoes -44.4766
156
root -0.257897 7.52073 16.3748 -389.444 -192.01 -735.028
lowerback 51.3389 -19.8199 6.56401
upperback 23.1558 -7.58842 2.78315
thorax 5.41116 1.68758 3.158
lowerneck -6.52191 3.90219 -0.136285
upperneck 19.6803 9.86479 -15.4255
head 7.97012 3.8612 -4.13364
rclavicle 8.5875e-014 8.11041e-014
rhumerus -198.806 -149.465 121.655
rradius 30.6117
rwrist -13.3763
rhand -16.434 3.64886
rfingers 7.12502
rthumb 9.78149 -26.104
lclavicle 8.5875e-014 8.11041e-014
lhumerus -17.6299 -40.3463 60.9087
lradius 53.7309
lwrist -5.49258
lhand -24.6242 -366.019
lfingers 7.12502
lthumb 1.87451 23.9524
rfemur -80.6432 -67.8722 -16.3048
rtibia 141.852
rfoot -42.6287 50.387
rtoes -17.8311
lfemur 177.616 112.231 243.983
ltibia 150.277
lfoot -49.138 -19.9973
ltoes -44.3068
157
root -0.212671 7.41598 16.3966 -390.184 -191.704 -734.934
lowerback 51.401 -19.9757 6.35834
upperback 23.2143 -7.84223 2.4498
thorax 5.4436 1.62261 2.97522
lowerneck -6.40445 4.08941 0.260295
upperneck 19.6987 10.0732 -15.4831
head 7.99096 3.98171 -4.20376
rclavicle 7.95139e-014 1.1609e-013
rhumerus -199.317 -149.94 120.817
rradius 31.2419
rwrist -13.3661
rhand -16.9605 3.37396
rfingers 7.12502
rthumb 9.27343 -26.4021
lclavicle 7.95139e-014 1.1609e-013
lhumerus -18.9874 -39.8385 62.9786
lradius 52.7106
lwrist -5.22476
lhand -24.4174 -366.195
lfingers 7.12502
lthumb 2.07423 23.7743
rfemur -79.3544 -70.1987 -17.9781
rtibia 142.511
rfoot -43.8016 51.1004
rtoes -17.3645
lfemur 182.095 112.667 249.859
ltibia 150.707
lfoot -50.1204 -20.1672
ltoes -44.2661
